<mxfile host="65bd71144e">
    <diagram id="YhX7fISsYiPth1Dhvf58" name="OOP Inheritance">
        <mxGraphModel dx="600" dy="294" grid="1" gridSize="10" guides="1" tooltips="1" connect="1" arrows="1" fold="1" page="1" pageScale="1" pageWidth="850" pageHeight="1100" math="0" shadow="0">
            <root>
                <mxCell id="0"/>
                <mxCell id="1" parent="0"/>
                <mxCell id="2" value="base/super class" style="swimlane;" vertex="1" parent="1">
                    <mxGeometry x="340" y="100" width="280" height="260" as="geometry"/>
                </mxCell>
                <mxCell id="3" value="sub class" style="swimlane;" vertex="1" parent="2">
                    <mxGeometry x="60" y="70" width="175" height="160" as="geometry"/>
                </mxCell>
                <mxCell id="4" value="Sub class inherit all the property&lt;br&gt;&amp;nbsp;from&lt;br&gt;base/super class&amp;nbsp;" style="text;html=1;align=center;verticalAlign=middle;resizable=0;points=[];autosize=1;strokeColor=none;fillColor=none;" vertex="1" parent="2">
                    <mxGeometry x="52.5" y="125" width="190" height="50" as="geometry"/>
                </mxCell>
                <mxCell id="6" value="Extend keyword is use to inhert the properties from base/super class to the sub class" style="text;html=1;strokeColor=none;fillColor=none;align=center;verticalAlign=middle;whiteSpace=wrap;rounded=0;" vertex="1" parent="1">
                    <mxGeometry x="750" y="110" width="300" height="30" as="geometry"/>
                </mxCell>
            </root>
        </mxGraphModel>
    </diagram>
</mxfile>